<svg xmlns="http://www.w3.org/2000/svg" viewBox="0 0 200 200" width="200" height="200">
  <!-- Background circle -->
  <circle cx="100" cy="100" r="95" fill="none" stroke="#2563eb" stroke-width="3"/>
  
  <!-- Server rack representation -->
  <rect x="70" y="60" width="60" height="80" rx="4" fill="none" stroke="#2563eb" stroke-width="2"/>
  
  <!-- Server units -->
  <rect x="75" y="70" width="50" height="12" rx="2" fill="#2563eb" opacity="0.8"/>
  <rect x="75" y="88" width="50" height="12" rx="2" fill="#2563eb" opacity="0.6"/>
  <rect x="75" y="106" width="50" height="12" rx="2" fill="#2563eb" opacity="0.8"/>
  <rect x="75" y="124" width="50" height="12" rx="2" fill="#2563eb" opacity="0.4"/>
  
  <!-- Status indicators (LED lights) -->
  <circle cx="80" cy="76" r="2" fill="#10b981"/>
  <circle cx="80" cy="94" r="2" fill="#f59e0b"/>
  <circle cx="80" cy="112" r="2" fill="#10b981"/>
  <circle cx="80" cy="130" r="2" fill="#ef4444"/>
  
  <!-- Dashboard lines -->
  <line x1="50" y1="50" x2="70" y2="65" stroke="#2563eb" stroke-width="2" opacity="0.6"/>
  <line x1="150" y1="50" x2="130" y2="65" stroke="#2563eb" stroke-width="2" opacity="0.6"/>
  <line x1="50" y1="150" x2="70" y2="135" stroke="#2563eb" stroke-width="2" opacity="0.6"/>
  <line x1="150" y1="150" x2="130" y2="135" stroke="#2563eb" stroke-width="2" opacity="0.6"/>
  
  <!-- Data points -->
  <circle cx="50" cy="50" r="3" fill="#2563eb" opacity="0.8"/>
  <circle cx="150" cy="50" r="3" fill="#2563eb" opacity="0.8"/>
  <circle cx="50" cy="150" r="3" fill="#2563eb" opacity="0.8"/>
  <circle cx="150" cy="150" r="3" fill="#2563eb" opacity="0.8"/>
</svg> 